<svg xmlns="http://www.w3.org/2000/svg" width="72.972" height="79.914" viewBox="0 0 72.972 79.914">
  <g id="Group_2" data-name="Group 2" transform="translate(-407.246 -169.452)">
    <path id="Path_8" data-name="Path 8" d="M479.892,189.247a23.765,23.765,0,0,0-31.4-18.428,4.448,4.448,0,0,1,1.771-.134c.286.024.58.062.873.106l.05.009c.27.042.538.09.8.14l.117.022c.278.054.541.108.787.158.157.031.3.059.437.085l.192.038a25.968,25.968,0,0,1,9.313,3.487q.6.381,1.186.8a22.224,22.224,0,0,1,8.759,18.675c-.158,5.213-2.366,9.891-4.947,14.316-2.832,4.857-4.906,8.606-5.029,14.4-.064,2.957.218,5.955-.27,8.889-.315,1.9-1.24,4.963-2.773,6.255a1.489,1.489,0,0,1-1.817.169,1.969,1.969,0,0,1-.512-.746c-1.577-3.422-.967-7.341-2.074-10.886q-.153-.491-.333-.956c-.043-.11-.09-.215-.135-.324-.08-.2-.16-.39-.247-.578-.061-.129-.125-.253-.188-.379-.079-.157-.158-.315-.243-.468-.074-.134-.151-.265-.23-.4s-.161-.267-.246-.4-.178-.268-.271-.4c-.08-.113-.161-.225-.245-.334-.1-.136-.209-.27-.319-.4-.076-.092-.155-.181-.234-.269-.122-.139-.245-.275-.374-.4-.065-.067-.133-.13-.2-.194-.149-.144-.3-.286-.454-.421-.031-.027-.064-.051-.1-.077a11.038,11.038,0,0,0-4.4-2.247l-.018-.005c-.281-.072-.567-.134-.859-.188l-.019,0a14.394,14.394,0,0,0-2.608-.238,7.654,7.654,0,0,1,7.654,7.655v19.643a4.134,4.134,0,0,0,7.216,2.756l2.682-3a26.453,26.453,0,0,0,6.737-17.636A28.593,28.593,0,0,1,474.51,208.7,23.78,23.78,0,0,0,479.892,189.247Z" fill="#2baaec"/>
    <path id="Path_9" data-name="Path 9" d="M429.467,239.531a8.185,8.185,0,0,1-.749-1.092c-1.5-2.617-1.362-5.7-1.634-8.688a77.892,77.892,0,0,0-3.079-16.281c-3.324-10.578-9.042-23.054.688-32.188,7.8-7.32,18.983-3.738,28.307-2.64,2.382.279,5.474.632,7.8.9-3.787-1.327-8.016-3.131-12.357-5.169-6.749-3.169-14.42-5.881-21.958-4.527-17.4,3.127-25.207,24.869-14.051,38.469a30.031,30.031,0,0,1,6.909,19.03,26.454,26.454,0,0,0,6.736,17.636l2.684,3a4.133,4.133,0,0,0,7.214-2.756V225.58a7.62,7.62,0,0,1,1.439-4.457C432.135,224.247,433.992,245.1,429.467,239.531Z" fill="#2baaec"/>
  </g>
</svg>
